<svg width="170" height="112" viewBox="0 0 170 112" fill="none" xmlns="http://www.w3.org/2000/svg">
  <g clip-path="url(#clip0_3_248)">
    <path
      d="M12.6938 75.2949C5.68326 75.2949 0 64.3901 0 57.695V41.2981C0 34.603 5.68326 29.1754 12.6938 29.1754V42.7038H14.9663V29.1754H27.6601V86.2514L14.9663 75.2949V54.8264H12.6938V75.2949Z"
      fill="#DDA25D" />
    <path
      d="M44.8989 25.8887L57.5927 20.4114V59.6313C57.5927 61.3226 56.9908 62.7375 55.7928 63.8834C54.5909 65.0312 53.1074 65.6023 51.3403 65.6023H50.2041V112H37.5103V65.6023H36.185C34.414 65.6023 32.9324 65.0312 31.7325 63.8834C30.5307 62.7393 29.9326 61.3226 29.9326 59.6313V29.1754L42.6264 26.4359V53.4797H44.8989V25.8887Z"
      fill="#DDA25D" />
    <path
      d="M72.5551 84.608L59.8613 80.2251V19.8624L81.269 11.6455C83.0361 11.6455 84.5196 12.2185 85.7215 13.3644C86.9195 14.5122 87.5214 15.929 87.5214 17.6166V48.6749C87.5214 50.3661 86.9195 51.7811 85.7215 52.927C84.5196 54.0748 83.0361 54.6459 81.269 54.6459H72.5551V84.6098V84.608ZM72.5551 42.5233H74.8276V24.8625H72.5551V42.5233Z"
      fill="#DDA25D" />
    <path
      d="M89.7939 91.1815V8.35875L111.184 0.309535C114.196 -0.823509 117.454 1.29519 117.454 4.38665V40.353H104.76V11.1683H102.488V42.5233H117.454V54.6459H102.488V88.9209H104.76V56.9967H117.454V94.9417C117.454 97.895 114.367 99.9419 111.47 98.9083L89.7939 91.1815Z"
      fill="#DDA25D" />
    <path
      d="M164.992 43.3449H136.57C133.804 43.3449 131.562 45.4862 131.562 48.1276C131.562 50.7691 133.804 52.9104 136.57 52.9104H164.992C167.758 52.9104 170 50.7691 170 48.1276C170 45.4862 167.758 43.3449 164.992 43.3449Z"
      fill="#DDA25D" />
    <path
      d="M160.208 88.0887L140.11 68.8954C138.154 67.0277 134.983 67.0277 133.028 68.8955C131.072 70.7632 131.072 73.7915 133.028 75.6593L153.125 94.8525C155.081 96.7202 158.252 96.7202 160.208 94.8525C162.163 92.9847 162.163 89.9564 160.208 88.0887Z"
      fill="#DDA25D" />
    <path
      d="M153.125 1.40065L133.027 20.5939C131.071 22.4616 131.071 25.4899 133.027 27.3577C134.983 29.2254 138.154 29.2255 140.11 27.3577L160.207 8.16446C162.163 6.29669 162.163 3.26842 160.207 1.40065C158.251 -0.467124 155.08 -0.467123 153.125 1.40065Z"
      fill="#DDA25D" />
  </g>
  <defs>
    <clipPath id="clip0_3_248">
      <rect width="170" height="112" fill="#DDA25D" />
    </clipPath>
  </defs>
</svg>