<svg width="70" height="38" viewBox="0 0 160 38" fill="none" xmlns="http://www.w3.org/2000/svg">
    <g clip-path="url(#clip0)">
        <path
            d="M160.027 18.5642C159.966 12.0626 155.495 7.3457 149.39 7.3457C143.126 7.3457 138.75 11.9057 138.75 18.4226C138.75 24.998 143.224 29.7734 149.39 29.7734C152.381 29.7734 155.07 28.6872 156.997 26.6965V28.3057C156.993 28.4997 157.029 28.6923 157.101 28.8724C157.173 29.0524 157.281 29.2162 157.417 29.3541C157.554 29.492 157.716 29.6012 157.896 29.6753C158.075 29.7494 158.267 29.787 158.461 29.7857C158.861 29.7914 159.248 29.6437 159.542 29.373C159.836 29.1023 160.015 28.7291 160.043 28.3303V18.5642H160.027ZM149.486 26.8719H149.39C145.698 26.8719 141.787 23.9119 141.787 18.4257C141.787 14.5026 144.8 10.3026 149.295 10.2442H149.39C153.083 10.2442 156.997 13.2042 156.997 18.6903C156.997 22.6226 153.984 26.8226 149.486 26.8719Z"
            fill="white" />
        <path
            d="M103.357 7.34875C97.0893 7.34875 92.7139 11.9088 92.7139 18.4257C92.7139 25.0011 97.1908 29.7764 103.357 29.7764C106.345 29.7764 109.034 28.6903 110.96 26.6995V28.3088C110.96 28.6947 111.113 29.0649 111.386 29.3379C111.659 29.6108 112.029 29.7641 112.415 29.7641C112.815 29.7698 113.202 29.6221 113.496 29.3514C113.79 29.0807 113.969 28.7076 113.997 28.3088V18.5641C113.929 12.0657 109.458 7.34875 103.357 7.34875ZM103.452 26.8718H103.357C99.6646 26.8718 95.7508 23.9118 95.7508 18.4257C95.7508 14.5026 98.7631 10.3026 103.258 10.2441H103.357C107.049 10.2441 110.96 13.2041 110.96 18.6903C110.96 22.6226 107.948 26.8226 103.452 26.8718Z"
            fill="white" />
        <path
            d="M68.3597 7.34875C62.0951 7.34875 57.7197 11.9088 57.7197 18.4257C57.7197 25.0011 62.1966 29.7764 68.3597 29.7764C71.3505 29.7764 74.0397 28.6903 75.9659 26.6995V28.3088C75.9659 28.6947 76.1192 29.0649 76.3921 29.3379C76.6651 29.6108 77.0353 29.7641 77.4213 29.7641C77.8207 29.7698 78.207 29.622 78.5007 29.3512C78.7944 29.0804 78.973 28.7073 78.9997 28.3088V18.5641C78.9351 12.0657 74.4613 7.34875 68.3597 7.34875ZM68.4582 26.8718H68.3597C64.6674 26.8718 60.7567 23.9118 60.7567 18.4257C60.7567 14.5026 63.769 10.3026 68.2643 10.2441H68.3597C72.052 10.2441 75.9659 13.2041 75.9659 18.6903C75.9659 22.6226 72.9536 26.8226 68.4582 26.8718Z"
            fill="white" />
        <path
            d="M90.7689 7.45954C90.4281 7.39493 90.0819 7.36299 89.735 7.36416C88.9677 7.34877 88.2072 7.51134 87.5132 7.83912C86.8192 8.1669 86.2106 8.65097 85.735 9.25339V8.88108C85.735 8.47877 85.5752 8.09293 85.2907 7.80845C85.0063 7.52398 84.6204 7.36416 84.2181 7.36416C83.8158 7.36416 83.43 7.52398 83.1455 7.80845C82.861 8.09293 82.7012 8.47877 82.7012 8.88108V28.2657C82.7012 28.668 82.861 29.0538 83.1455 29.3383C83.43 29.6228 83.8158 29.7826 84.2181 29.7826C84.6204 29.7826 85.0063 29.6228 85.2907 29.3383C85.5752 29.0538 85.735 28.668 85.735 28.2657V17.8749C85.735 15.7672 85.7104 12.5795 87.175 11.1057C87.4367 10.82 87.7583 10.5957 88.1169 10.4489C88.4754 10.3021 88.862 10.2364 89.2489 10.2565C89.654 10.2588 90.0583 10.2928 90.4581 10.358C90.5127 10.3694 90.5685 10.3745 90.6243 10.3734C90.8572 10.3571 91.0821 10.2819 91.278 10.1549C91.4739 10.0279 91.6344 9.85322 91.7443 9.64723C91.8639 9.44543 91.9334 9.2179 91.9469 8.9837C91.9605 8.7495 91.9177 8.51546 91.8222 8.3012C91.7267 8.08695 91.5812 7.89871 91.3979 7.75226C91.2146 7.60582 90.9989 7.50544 90.7689 7.45954Z"
            fill="white" />
        <path
            d="M137.569 7.81331C137.425 7.67218 137.253 7.5614 137.065 7.48748C136.877 7.41355 136.676 7.37798 136.474 7.38286C136.272 7.38773 136.072 7.43295 135.888 7.51585C135.704 7.59876 135.538 7.71768 135.4 7.86562L127.351 16.3764L119.302 7.84101C119.159 7.68951 118.987 7.56859 118.796 7.48555C118.605 7.40252 118.399 7.3591 118.191 7.35793C117.794 7.35592 117.413 7.51075 117.129 7.7887C116.851 8.0683 116.69 8.44427 116.681 8.83886C116.672 9.23345 116.815 9.61647 117.08 9.9087L125.262 18.5825L117.132 27.1795C116.855 27.4675 116.697 27.8503 116.691 28.2503C116.686 28.6503 116.832 29.0375 117.102 29.3333C117.245 29.4805 117.417 29.597 117.606 29.6758C117.796 29.7547 118 29.7941 118.205 29.7918C118.411 29.7895 118.614 29.7455 118.802 29.6625C118.989 29.5794 119.159 29.4591 119.299 29.3087L127.348 20.801L135.385 29.3025C135.525 29.453 135.694 29.5734 135.882 29.6565C136.071 29.7396 136.274 29.7836 136.479 29.7859C136.685 29.7882 136.889 29.7487 137.079 29.6699C137.269 29.591 137.441 29.4744 137.585 29.3272C137.853 29.0307 137.998 28.6438 137.993 28.2442C137.987 27.8446 137.83 27.462 137.554 27.1733L129.437 18.5856L137.622 9.9487C137.891 9.65526 138.036 9.26873 138.026 8.87045C138.017 8.47217 137.853 8.09321 137.569 7.81331Z"
            fill="white" />
        <path
            d="M56.4184 7.36414H40.1107C39.7084 7.36414 39.3225 7.52395 39.038 7.80843C38.7536 8.09291 38.5938 8.47875 38.5938 8.88106C38.5938 9.28337 38.7536 9.66921 39.038 9.95368C39.3225 10.2382 39.7084 10.398 40.1107 10.398H46.7691V28.3303C46.7691 28.7157 46.9221 29.0855 47.1943 29.3583C47.4666 29.6312 47.836 29.7849 48.2214 29.7857C48.6212 29.7913 49.0079 29.6436 49.302 29.3729C49.5962 29.1022 49.7755 28.7291 49.803 28.3303V10.398H56.4338C56.8361 10.398 57.2219 10.2382 57.5064 9.95368C57.7909 9.66921 57.9507 9.28337 57.9507 8.88106C57.9507 8.47875 57.7909 8.09291 57.5064 7.80843C57.2219 7.52395 56.8361 7.36414 56.4338 7.36414H56.4184Z"
            fill="white" />
        <path
            d="M12.3076 34.0965C12.0522 34.3519 11.5845 34.4042 11.0184 34.2842C10.2368 34.0996 9.66453 33.6688 9.59376 33.1734C9.57771 33.0737 9.58644 32.9716 9.61917 32.8761C9.65191 32.7806 9.70764 32.6946 9.78145 32.6257C9.83319 32.5725 9.89224 32.5269 9.95684 32.4903C10.1003 32.4153 10.2571 32.3693 10.4184 32.3549C10.7846 32.325 11.1525 32.3863 11.4892 32.5334C11.8259 32.6806 12.1208 32.9089 12.3476 33.198C12.438 33.3135 12.4893 33.4547 12.4943 33.6012C12.4993 33.7477 12.4576 33.8921 12.3753 34.0134C12.3562 34.0437 12.3334 34.0716 12.3076 34.0965Z"
            fill="#15AC5B" />
        <path
            d="M24.821 33.0257L24.7348 33.1057C24.0794 33.6841 23.0702 33.9918 22.581 33.7641C22.4707 33.7139 22.3777 33.6322 22.3136 33.5293C22.2496 33.4264 22.2173 33.3068 22.221 33.1857C22.2484 32.9175 22.3772 32.6699 22.581 32.4934C23.0208 32.0759 23.5824 31.8096 24.1841 31.7334C24.2802 31.7227 24.3772 31.7227 24.4733 31.7334C24.9133 31.7703 25.0887 31.9764 25.1379 32.1457C25.2825 32.5334 24.9533 32.9026 24.8518 33.0041L24.821 33.0257Z"
            fill="#15AC5B" />
        <path
            d="M10.2152 20.798C9.92667 21.0909 9.56227 21.2976 9.16285 21.3949C8.75027 21.4828 8.32076 21.4437 7.93082 21.2828C7.54089 21.1218 7.2088 20.8467 6.97824 20.4934C6.63034 19.9886 6.42944 19.3971 6.39793 18.7848C6.36642 18.1726 6.50554 17.5636 6.79978 17.0257C6.91835 16.8111 7.06532 16.6134 7.2367 16.438C7.46404 16.2079 7.73943 16.031 8.04317 15.9198C8.34691 15.8086 8.67148 15.766 8.99362 15.7949C9.28969 15.837 9.57401 15.9392 9.82907 16.0953C10.0841 16.2515 10.3045 16.4581 10.4767 16.7026C10.9692 17.4278 11.1611 18.3157 11.0121 19.1796C10.9207 19.7886 10.6422 20.3542 10.2152 20.798Z"
            fill="#15AC5B" />
        <path
            d="M17.301 12.5211C17.2155 12.6094 17.11 12.6759 16.9933 12.7149C16.8298 12.7681 16.654 12.7703 16.4892 12.7214C16.3244 12.6725 16.1783 12.5748 16.0702 12.4411C15.9285 12.2662 15.8465 12.0505 15.8364 11.8257V10.8164H15.181H15.1379C14.9618 10.799 14.7951 10.7284 14.66 10.6142C14.5248 10.4999 14.4275 10.3472 14.381 10.1764C14.3314 9.99423 14.3288 9.80241 14.3735 9.61892C14.4181 9.43543 14.5086 9.26625 14.6364 9.12722L14.6949 9.07183C14.8241 8.96551 14.9833 8.90206 15.1502 8.89029H15.7902V7.99799C15.7845 7.73172 15.8802 7.47322 16.0579 7.27491C16.1849 7.15244 16.3477 7.07374 16.5226 7.05029H16.6149C16.8309 7.07291 17.0311 7.17409 17.1775 7.33462C17.3238 7.49515 17.4061 7.70385 17.4087 7.92106C17.4272 8.24722 17.4426 8.55799 17.4579 8.86875C17.6631 8.86875 17.8682 8.8626 18.0733 8.85029H18.101C18.3603 8.87524 18.5992 9.00193 18.7653 9.20263C18.9314 9.40332 19.0112 9.66166 18.9872 9.92106C18.9808 10.1512 18.8886 10.3707 18.7287 10.5364C18.6004 10.6627 18.4358 10.7455 18.2579 10.7734H18.2303C17.9964 10.7734 17.7749 10.7918 17.5595 10.7949C17.5595 11.1026 17.5872 11.4318 17.5995 11.7518C17.6028 12.0371 17.4959 12.3127 17.301 12.5211Z"
            fill="#15AC5B" />
        <path
            d="M25.4216 22.798C25.2651 22.961 25.06 23.0689 24.837 23.1056C24.6612 23.1305 24.482 23.0999 24.3243 23.0183C24.1666 22.9367 24.0382 22.8081 23.957 22.6503C23.8482 22.4336 23.8095 22.1884 23.8462 21.9487C23.957 21.1949 24.0462 20.4349 24.1108 19.6749H23.8339C23.2923 19.6749 22.7354 19.638 22.1816 19.6072C21.97 19.5926 21.7689 19.5098 21.6085 19.371C21.4482 19.2323 21.3372 19.0452 21.2923 18.838C21.242 18.6304 21.2438 18.4137 21.2975 18.207C21.3511 18.0003 21.4551 17.8101 21.6 17.6533C21.6476 17.6069 21.6991 17.5647 21.7539 17.5272C21.9197 17.4195 22.1131 17.3619 22.3108 17.361H22.3293C22.8923 17.3918 23.4339 17.4164 23.9447 17.4287H24.2308C24.2523 16.681 24.2554 15.9241 24.2308 15.1764C24.222 14.8646 24.332 14.561 24.5385 14.3272C24.6852 14.1831 24.8758 14.0922 25.08 14.0687H25.1108C25.6431 14.0933 26.0339 14.5118 26.0831 15.1303C26.1262 15.8933 26.1447 16.6687 26.1385 17.4164C26.677 17.398 27.197 17.3703 27.677 17.3272C27.7914 17.3198 27.9061 17.338 28.0125 17.3806C28.119 17.4232 28.2146 17.489 28.2923 17.5733C28.3993 17.7002 28.4795 17.8473 28.5282 18.006C28.5768 18.1646 28.5929 18.3314 28.5754 18.4964C28.5492 18.7998 28.4262 19.0867 28.2247 19.3149C28.0949 19.4475 27.9252 19.534 27.7416 19.561C27.1939 19.6103 26.6277 19.641 26.0462 19.6595C25.9877 20.4533 25.9016 21.2441 25.7877 22.0164C25.7428 22.3065 25.6157 22.5777 25.4216 22.798Z"
            fill="#15AC5B" />
        <path
            d="M0.701239 19.4872C0.663858 19.5249 0.618404 19.5536 0.568302 19.5712C0.5182 19.5888 0.464759 19.5948 0.412008 19.5887C0.357695 19.5809 0.305895 19.5607 0.260566 19.5298C0.215236 19.4989 0.177578 19.458 0.150469 19.4103C0.0145727 19.0247 -0.0368453 18.6144 -0.000299927 18.2072C0.0183629 17.3254 0.101663 16.4461 0.248931 15.5764C0.498512 14.2127 0.911757 12.8842 1.4797 11.6195C1.56813 11.4111 1.69202 11.2195 1.84585 11.0534C1.88196 11.0173 1.92108 10.9843 1.96278 10.9549C2.02986 10.9072 2.11078 10.8828 2.19307 10.8856C2.27536 10.8884 2.35445 10.9181 2.41816 10.9703C2.64585 11.158 2.61508 11.5857 2.32278 12.2595C2.01201 12.9701 1.74987 13.701 1.53816 14.4472C1.65817 14.5923 1.79215 14.7252 1.93816 14.8441C2.11483 14.9804 2.23616 15.1761 2.2797 15.3949C2.31911 15.6938 2.30241 15.9975 2.23047 16.2903C2.18369 16.5189 2.07757 16.7311 1.92278 16.9057C1.84563 16.9897 1.74029 17.0423 1.62681 17.0537C1.51333 17.065 1.39964 17.0343 1.30739 16.9672C1.21556 16.9046 1.12817 16.8357 1.04585 16.761C0.957177 17.3811 0.903758 18.0057 0.885854 18.6318C0.885854 18.6318 0.922777 19.2718 0.701239 19.4872Z"
            fill="#15AC5B" />
        <path
            d="M19.0768 29.1641C18.5591 29.6775 17.8966 30.02 17.1784 30.1456C16.5067 30.2873 15.8075 30.2152 15.179 29.9393C14.5504 29.6633 14.024 29.1975 13.6737 28.6071C13.3879 28.1298 13.2313 27.5862 13.2195 27.03C13.2076 26.4737 13.3408 25.9239 13.606 25.4348C13.7644 25.1383 13.9655 24.8666 14.203 24.6287C14.8593 23.9888 15.7301 23.6159 16.646 23.5825C17.167 23.5813 17.682 23.6938 18.155 23.9122C18.628 24.1306 19.0476 24.4497 19.3845 24.8471C19.6644 25.1962 19.8663 25.6012 19.9767 26.0348C20.0871 26.4684 20.1034 26.9206 20.0245 27.361C19.9013 28.0451 19.5704 28.6746 19.0768 29.1641Z"
            fill="#15AC5B" />
        <path
            d="M30.4186 27.5641C30.1237 27.9078 29.7215 28.142 29.2771 28.2288C29.1169 28.2444 28.9558 28.2113 28.8147 28.1339C28.6737 28.0565 28.5592 27.9384 28.4863 27.7949C27.914 26.7272 28.794 23.4226 30.3325 21.8718C30.5012 21.7005 30.688 21.5478 30.8894 21.4165C31.0287 21.3249 31.1844 21.2612 31.3479 21.2288C31.5062 21.1924 31.6715 21.1998 31.826 21.2502C31.9805 21.3006 32.1183 21.3921 32.2248 21.5149C32.6679 22.0257 32.6586 23.1857 32.1971 24.5365C31.8249 25.6666 31.2154 26.7042 30.4094 27.5795L30.4186 27.5641Z"
            fill="#15AC5B" />
        <path
            d="M8.34077 8.32725L8.26384 8.40109C6.60846 9.91494 4.95923 10.3211 4.18692 9.93955C4.01923 9.85808 3.88127 9.72612 3.79242 9.56221C3.70357 9.39831 3.66829 9.21069 3.69153 9.02571C3.75307 8.31186 4.2823 7.42571 5.18077 6.52725C5.99002 5.70331 6.94044 5.03114 7.98692 4.54263C8.78384 4.20725 9.4023 4.18878 9.77769 4.4934C9.88488 4.58186 9.97072 4.69339 10.0288 4.81965C10.0869 4.94592 10.1157 5.08367 10.1131 5.22263C10.1531 6.45032 8.35923 8.30878 8.34077 8.32725Z"
            fill="#15AC5B" />
        <path
            d="M5.60607 29.2041C5.48965 29.3196 5.34316 29.4002 5.18326 29.4366C5.02335 29.4731 4.85643 29.4639 4.70145 29.4103C3.73837 29.1303 2.87991 27.9918 2.4553 27.3364C1.84616 26.4164 1.39966 25.3985 1.1353 24.3272C0.969142 23.5303 1.05222 22.9395 1.37222 22.6164L1.43376 22.561C1.53822 22.4769 1.65978 22.4165 1.78997 22.384C1.92017 22.3516 2.05586 22.348 2.1876 22.3734C3.20607 22.5457 4.53222 24.2626 4.89837 24.8687C6.07376 26.798 6.18453 28.4626 5.68914 29.1118C5.66475 29.1454 5.63691 29.1763 5.60607 29.2041Z"
            fill="#15AC5B" />
        <path
            d="M33.2309 18.9887C33.3601 18.8595 33.3601 18.761 33.3232 17.921V17.8626C33.2775 16.9847 33.1665 16.1115 32.9909 15.2503C32.8617 14.5549 32.6155 13.7579 32.6063 13.7272C32.3581 12.9095 32.0496 12.1114 31.6832 11.3395C31.6041 11.1495 31.5007 10.9705 31.3755 10.8072C31.3422 10.7696 31.3015 10.7393 31.256 10.7181C31.2105 10.697 31.1611 10.6854 31.1109 10.6841C31.0608 10.6827 31.011 10.6916 30.9645 10.7101C30.9179 10.7286 30.8756 10.7564 30.8401 10.7918C30.8054 10.8271 30.778 10.8689 30.7595 10.9149C30.7411 10.9608 30.7319 11.01 30.7324 11.0595C30.7704 11.3805 30.863 11.6927 31.0063 11.9826C31.3354 12.6962 31.6161 13.4312 31.8463 14.1826C31.7648 14.3485 31.6613 14.5027 31.5386 14.641V14.6626V14.6841C31.4992 14.7577 31.4702 14.8364 31.4525 14.9179C31.3848 15.281 31.5201 16.3672 31.9109 16.6287C31.9803 16.6759 32.0623 16.7012 32.1463 16.7012C32.2303 16.7012 32.3123 16.6759 32.3817 16.6287L32.4094 16.6072C32.4863 17.121 32.5417 17.6718 32.5848 18.3087C32.6155 18.7641 32.6678 18.9826 32.8925 19.0718C32.9511 19.0899 33.0136 19.0918 33.0732 19.0772C33.1328 19.0625 33.1873 19.032 33.2309 18.9887Z"
            fill="#15AC5B" />
        <path
            d="M16.3411 35.0964C16.3277 35.0711 16.3173 35.0442 16.3103 35.0164H15.7411C15.5095 35.0248 15.2832 34.9457 15.1072 34.7949C15.0341 34.7207 14.9932 34.6206 14.9932 34.5164C14.9932 34.4122 15.0341 34.3122 15.1072 34.238C15.241 34.1206 15.4158 34.0608 15.5934 34.0718C15.9011 34.0718 16.2088 34.0718 16.5349 34.0718C16.5565 33.958 16.5749 33.8257 16.5934 33.6811C16.6161 33.5653 16.6717 33.4585 16.7534 33.3734C16.9433 33.2087 17.1884 33.1219 17.4395 33.1303C17.5349 33.124 17.6304 33.139 17.7193 33.1741C17.8081 33.2093 17.8881 33.2636 17.9534 33.3334C18.0101 33.4024 18.0507 33.4833 18.072 33.5701C18.0933 33.6569 18.0948 33.7474 18.0765 33.8349C18.0611 33.918 18.0457 33.9826 18.0303 34.0411L18.6949 34.0195C18.8006 34.0157 18.9057 34.0357 19.0026 34.078C19.0578 34.1047 19.1057 34.1446 19.1419 34.1941C19.1782 34.2436 19.2017 34.3013 19.2106 34.362C19.2194 34.4227 19.2131 34.4847 19.1924 34.5425C19.1718 34.6002 19.1372 34.652 19.0918 34.6934C18.8686 34.8664 18.5958 34.9634 18.3134 34.9703C18.0334 34.9703 17.7534 34.9888 17.4703 34.998C17.3635 35.1094 17.2316 35.1938 17.0857 35.2441C16.9316 35.2804 16.773 35.2939 16.6149 35.2841C16.3872 35.2534 16.3688 35.1795 16.3411 35.0964Z"
            fill="#15AC5B" />
        <path
            d="M20.3999 3.39488C20.2399 3.55488 19.7538 4.03796 15.4245 3.94565C12.963 3.83796 12.5569 3.46258 12.4984 3.10873C12.4867 3.02982 12.4947 2.94925 12.5215 2.87412C12.5483 2.799 12.5932 2.73163 12.6522 2.67796C12.778 2.56345 12.9255 2.47553 13.0861 2.4195C13.763 2.15796 15.1107 1.96719 16.4399 1.94873C17.0553 1.94873 20.0861 1.94873 20.5045 2.81335C20.5423 2.89056 20.5593 2.97626 20.5539 3.06203C20.5485 3.14781 20.5209 3.2307 20.4738 3.30258C20.4511 3.33482 20.4264 3.36565 20.3999 3.39488Z"
            fill="#15AC5B" />
        <path
            d="M29.7443 10.361C29.5418 10.5511 29.2822 10.669 29.0058 10.6964C27.7504 10.8749 25.1289 9.09642 24.0643 6.96412C23.5443 5.92412 23.7751 5.36412 24.0643 5.07796L24.0858 5.05643C24.892 4.30566 26.652 5.02258 28.4643 6.83489C29.9227 8.29642 30.4243 9.67796 29.7443 10.361Z"
            fill="#15AC5B" />
    </g>
    <defs>
        <clipPath id="clip0">
            <rect width="160" height="38" fill="white" />
        </clipPath>
    </defs>
</svg>